# xmcd
#
# Track frame offsets:
#	150
#	12869
#	31053
#	42615
#	59120
#	68904
#	81959
#	94480
#	109902
#	126036
#	132079
#	143251
#	157992
#
# Disc length: 2300 seconds
#
# Revision: 0
# Processed by: cddbd v1.5.2PL0 Copyright (c) Steve Scherf et al.
# Submitted via: EZCDAudioConverter 3.1.7.1
#
DISCID=af08fa0d
DTITLE=הגבעתרון - גוונים
DYEAR=2014
DGENRE=herew
TTITLE0=הגובעתרון - גוונים
TTITLE1=הגובעתרון - עין גדי
TTITLE2=הגובעתרון - קופסת הצבעים
TTITLE3=הגובעתרון - הקרב האחרון
TTITLE4=הגובעתרון - יליד הארץ
TTITLE5=הגובעתרון - ים השיבולים
TTITLE6=הגובעתרון - הוי ארצי מולדתי
TTITLE7=הגובעתרון - בנתיבי אבי
TTITLE8=הגובעתרון - שיר על רועי
TTITLE9=הגובעתרון - מלאו אסמינו בר
TTITLE10=הגובעתרון - שיר העמק( באה מנוחה ליגע)
TTITLE11=הגובעתרון - ציון תמתי
TTITLE12=Unknown artist - החגיגה נגמרת
EXTD=
EXTT0=
EXTT1=
EXTT2=
EXTT3=
EXTT4=
EXTT5=
EXTT6=
EXTT7=
EXTT8=
EXTT9=
EXTT10=
EXTT11=
EXTT12=
PLAYORDER=
